<?xml version="1.0" encoding="UTF-8"?>
<svg version="1.1" xmlns="http://www.w3.org/2000/svg" width="1536" height="1024">
<path d="M0 0 C506.88 0 1013.76 0 1536 0 C1536 337.92 1536 675.84 1536 1024 C1029.12 1024 522.24 1024 0 1024 C0 686.08 0 348.16 0 0 Z " fill="#FDFDFD" transform="translate(0,0)"/>
<path d="M0 0 C1.90510345 -0.01073296 1.90510345 -0.01073296 3.84869385 -0.02168274 C5.25918555 -0.02452301 6.66967751 -0.02723474 8.08016968 -0.02983093 C9.56352904 -0.03609655 11.04688684 -0.04274344 12.53024292 -0.04974365 C17.40543526 -0.07077963 22.2806279 -0.08114751 27.15585327 -0.09111023 C28.83561596 -0.09515835 30.51537849 -0.09927529 32.19514084 -0.10346031 C40.08938947 -0.12251317 47.98362875 -0.13674243 55.87789595 -0.14507228 C64.98120732 -0.15483704 74.08427504 -0.18113615 83.1875006 -0.22157317 C90.2288345 -0.25177407 97.27009874 -0.26654503 104.31149614 -0.26985329 C108.51431932 -0.27219981 112.71688225 -0.2811076 116.91963577 -0.30631447 C120.87761099 -0.32966912 124.83515599 -0.333799 128.79318237 -0.32355309 C130.24072072 -0.32305936 131.68828077 -0.32933154 133.13575363 -0.34310913 C144.80583161 -0.44791473 152.62438092 1.31178439 161.21054077 9.36982727 C170.67739044 19.15941045 170.31267217 30.96344638 170.12602425 43.70340729 C170.08873373 46.49749141 170.0766323 49.2906566 170.07197571 52.0849762 C170.05732341 60.02289769 170.02244621 67.95994183 169.91244507 75.89717102 C169.84669331 80.77214869 169.83058482 85.64525221 169.8451519 90.52062225 C169.84139712 92.36246288 169.81965517 94.2043691 169.77849007 96.04575348 C169.52426747 107.76828928 170.79207693 114.97332674 178.40901184 124.06300354 C181.70656066 128.09834769 183.85003436 132.39771163 185.92929077 137.14717102 C187.15989227 137.15081665 188.39049377 137.15446228 189.65838623 137.15821838 C201.28118281 137.19523186 212.90371601 137.25307418 224.52631187 137.33107376 C230.50098104 137.37050691 236.47550373 137.40271597 242.45028687 137.41816711 C248.22115797 137.43336085 253.99162628 137.46785531 259.76231766 137.51548004 C261.95897537 137.53026571 264.1556906 137.53821041 266.35239792 137.53905487 C269.44014697 137.5414347 272.52679198 137.5685969 275.61434937 137.60127258 C276.96303101 137.59372704 276.96303101 137.59372704 278.33895874 137.58602905 C287.94022271 137.74223404 297.09166419 141.26552538 303.92929077 148.14717102 C311.19602312 157.91688895 312.22785883 166.38870654 312.20394897 178.26753235 C312.21161537 180.23469963 312.21161537 180.23469963 312.21943665 182.24160767 C312.23277837 185.82442355 312.23341058 189.40713362 312.23087335 192.98996949 C312.22980006 195.98917788 312.23469627 198.98836518 312.23947877 201.98756903 C312.25055789 209.06886206 312.25102076 216.15010204 312.2449646 223.23139954 C312.23892951 230.51649957 312.25122759 237.80140624 312.27253467 245.08647329 C312.29019873 251.35849348 312.29614436 257.63045239 312.29289693 263.90249652 C312.2910911 267.64077846 312.29364943 271.37892254 312.30761147 275.11718178 C312.32261843 279.29112248 312.31317785 283.46467442 312.30160522 287.6386261 C312.30924896 288.86337646 312.3168927 290.08812683 312.32476807 291.34999084 C312.25098087 303.42593065 309.54586457 312.86569642 301.33554077 321.90107727 C291.14058889 331.4949117 279.01186038 330.68673448 265.92147827 330.53779602 C263.98521512 330.53032463 262.04894435 330.52463594 260.1126709 330.52064514 C255.04581386 330.50545953 249.97942415 330.46623951 244.91275024 330.42182922 C239.73082804 330.38072304 234.54882944 330.3626015 229.36679077 330.34248352 C219.22075345 330.29973774 209.07506116 330.23157317 198.92929077 330.14717102 C198.94500122 331.16702087 198.94500122 331.16702087 198.96102905 332.20747375 C199.0029918 335.33316751 199.02874368 338.45880169 199.05429077 341.58467102 C199.07104858 342.65394836 199.0878064 343.72322571 199.10507202 344.8249054 C199.18008485 357.08950256 197.11466966 365.69164525 188.74179077 374.83467102 C182.92215712 380.37536798 175.93220106 383.62524209 167.92929077 384.14717102 C167.9978981 384.98948273 168.06650543 385.83179443 168.13719177 386.69963074 C169.12126566 399.47184093 169.26123798 412.22948306 169.33432007 425.03340149 C169.3521925 427.86328466 169.38716313 430.69218265 169.43685913 433.52168274 C169.49757355 436.98742514 169.52785696 440.45225044 169.53749275 443.91849899 C169.54998773 445.84384237 169.59187368 447.76892527 169.63471985 449.6938324 C169.60955408 460.53466191 166.44967346 468.90761138 158.74179077 476.64717102 C150.26961671 484.26711455 139.28199587 484.73461778 128.46859741 484.68061829 C127.04803071 484.68769232 125.62747154 484.69644352 124.20692444 484.70672607 C120.38032034 484.72906382 116.55413288 484.72631739 112.72748876 484.7174046 C109.51948114 484.7122631 106.31154966 484.71961273 103.1035499 484.72687668 C95.52919999 484.74382608 87.95505178 484.74036012 80.38070679 484.72358704 C72.5955584 484.70666886 64.81097089 484.72250704 57.02588373 484.75480992 C50.31381078 484.78159391 43.60191146 484.78875822 36.88979048 484.78029484 C32.89321303 484.77539139 28.89697274 484.77743982 24.90043831 484.79808235 C21.14000042 484.8165791 17.38036267 484.81031295 13.61996651 484.78588295 C11.60179984 484.77857307 9.5835896 484.7956212 7.56549072 484.81370544 C-2.85997815 484.70636905 -11.74533923 482.52503328 -19.57070923 475.33467102 C-26.114933 468.12377996 -28.16729388 461.06228675 -28.24771118 451.43257141 C-28.25428238 450.77823624 -28.26085358 450.12390106 -28.2676239 449.44973755 C-28.28723297 447.2980994 -28.2989888 445.14653048 -28.30899048 442.99482727 C-28.31306601 442.2566873 -28.31714153 441.51854733 -28.32134056 440.75803947 C-28.34214395 436.85430563 -28.35647284 432.95060638 -28.36587524 429.04682922 C-28.37695508 425.02403611 -28.41138883 421.00179375 -28.45104694 416.97919559 C-28.47722545 413.8761596 -28.4855679 410.77325504 -28.48915672 407.67011833 C-28.49401596 406.18739012 -28.50561116 404.70466752 -28.52419472 403.22204781 C-28.54862486 401.14464405 -28.54761584 399.0686695 -28.54067993 396.99116516 C-28.54947929 395.22175316 -28.54947929 395.22175316 -28.55845642 393.41659546 C-27.96909745 389.46605578 -26.52731919 387.25519939 -24.07070923 384.14717102 C-23.74070923 384.14717102 -23.41070923 384.14717102 -23.07070923 384.14717102 C-22.59087162 388.12625707 -22.11196222 392.10545433 -21.63320923 396.08467102 C-21.4985022 397.20164368 -21.36379517 398.31861633 -21.2250061 399.46943665 C-20.95914998 401.6805815 -20.69562158 403.89200753 -20.43447876 406.10371399 C-20.21594756 407.9320428 -19.99012934 409.75955363 -19.74990845 411.5851593 C-18.99295355 417.57538264 -19.07070923 422.95815976 -19.07070923 429.14717102 C22.17929077 429.14717102 63.42929077 429.14717102 105.92929077 429.14717102 C106.25929077 422.21717102 106.58929077 415.28717102 106.92929077 408.14717102 C107.30741456 403.68434697 107.71336854 399.27516942 108.24179077 394.83467102 C108.34684937 393.80406555 108.45190796 392.77346008 108.56015015 391.71162415 C109.45304745 384.08540294 110.79162219 377.64449907 116.99179077 372.70967102 C125.25284119 368.31549527 135.88580656 369.92610892 144.99179077 370.64717102 C162.7252359 372.46522132 162.7252359 372.46522132 178.64804077 365.75654602 C183.16357756 360.76845306 184.17525209 355.19781685 184.09725952 348.68232727 C184.10434937 347.46996399 184.11143921 346.25760071 184.1187439 345.00849915 C184.11744378 342.47976783 184.09666714 339.95097018 184.0562439 337.42256165 C184.15802013 328.29662568 184.15802013 328.29662568 186.47079468 324.84980774 C188.35507202 323.01826477 188.35507202 323.01826477 190.23129272 321.57466125 C192.21274142 319.90887685 193.0219702 318.56157625 193.92929077 316.14717102 C193.66665502 311.33218221 192.68411155 308.09973996 189.92929077 304.14717102 C190.68725952 303.61929993 190.68725952 303.61929993 191.46054077 303.08076477 C195.74373493 299.83638991 195.74373493 299.83638991 197.67929077 294.95967102 C196.97363816 291.37260359 195.94944365 288.9060985 194.36679077 285.64717102 C192.72213954 282.19198154 191.92268754 280.07783705 191.55429077 276.20967102 C193.09015837 272.78887502 193.62048977 272.43671341 196.86679077 270.89717102 C200.25345251 269.61704529 203.68763619 268.65718148 207.17929077 267.70967102 C211.57984657 266.46410157 214.0298315 264.79487785 216.92929077 261.14717102 C218.55558301 257.89458654 218.49463195 254.66115443 217.92929077 251.14717102 C216.58703323 248.37994384 214.75851162 246.13468661 212.80429077 243.77217102 C212.00426636 242.75667175 212.00426636 242.75667175 211.18807983 241.72065735 C210.04487342 240.27181348 208.89356226 238.82933428 207.73495483 237.39277649 C205.27691651 234.33584889 202.87311493 231.23815398 200.46884155 228.13887024 C199.31776452 226.65676042 198.16279818 225.17765874 197.00302124 223.7023468 C195.89196905 222.28586199 194.79290047 220.85990359 193.70541382 219.42524719 C192.44195116 217.80471522 191.11823799 216.23039611 189.75668335 214.69136047 C183.87012373 207.62814263 182.85594963 202.08126581 183.07128906 192.98265076 C183.14867029 189.54232584 183.08744162 186.10338432 183.04647827 182.66279602 C183.03584351 181.35504211 183.02520874 180.04728821 183.01425171 178.6999054 C182.39456098 152.78686094 168.52578442 128.29015695 151.05429077 109.89717102 C131.14899995 90.99923297 108.73929525 82.28065946 81.92929077 78.14717102 C80.69050171 77.94994446 79.45171265 77.7527179 78.17538452 77.54951477 C62.55028737 75.70499496 44.3234387 75.81042901 28.92929077 79.14717102 C28.10509644 79.32490051 27.2809021 79.50263 26.43173218 79.68574524 C8.21397889 83.73091674 -9.1498426 89.93958564 -24.98867798 99.93232727 C-27.07070923 101.14717102 -27.07070923 101.14717102 -29.07070923 101.14717102 C-29.16370879 91.41079141 -29.23462547 81.67451883 -29.27795792 71.93778419 C-29.29876357 67.41578519 -29.32695152 62.89409183 -29.37246704 58.37226868 C-29.41617711 54.00207421 -29.43989905 49.63217229 -29.4502182 45.26177597 C-29.4575647 43.60092443 -29.47190996 41.94008749 -29.49362946 40.27936172 C-29.64670518 28.08105545 -28.78717093 18.24847365 -20.07461548 8.97138977 C-13.91475538 3.36387581 -8.40578523 0.0324661 0 0 Z " fill="#1F62A7" transform="translate(344.0707092285156,243.8528289794922)"/>
<path d="M0 0 C0.62181152 0.21430664 1.24362305 0.42861328 1.88427734 0.64941406 C27.28995198 9.43556985 47.7481542 27.51903977 59.76171875 51.51953125 C71.14118711 77.05884185 72.84943731 105.69243592 63.3125 132.125 C58.55753217 144.4447575 51.82119518 155.14292134 43 165 C42.47277344 165.60972656 41.94554687 166.21945312 41.40234375 166.84765625 C24.41497543 185.22529512 -1.19516257 196.16977485 -25.9765625 197.2734375 C-45.93456759 197.78200071 -67.50738333 194.62814629 -84.19140625 182.72265625 C-86.73928181 180.75919664 -86.73928181 180.75919664 -88.98706055 181.24194336 C-94.39522818 183.27861534 -99.70084049 189.29456817 -103 194 C-103.55837814 196.55142126 -103.36770599 198.24062827 -103 200.80078125 C-103 212.37960773 -124.53091569 228.65243226 -132.28865051 236.42652893 C-133.9244004 238.06150134 -135.5610224 239.69560166 -137.19848633 241.32885742 C-139.69663968 243.82161995 -142.18936198 246.31972475 -144.68164062 248.81835938 C-146.29134591 250.42740428 -147.90136115 252.03613918 -149.51171875 253.64453125 C-150.2452507 254.38008743 -150.97878265 255.11564362 -151.73454285 255.87348938 C-155.77429433 259.89516979 -159.90210265 263.74927454 -164.23294067 267.45655823 C-167.0133904 269.88514802 -169.60079665 272.4934006 -172.1875 275.125 C-172.68185547 275.62386719 -173.17621094 276.12273437 -173.68554688 276.63671875 C-175.12520985 278.08965925 -176.56273194 279.54469092 -178 281 C-183.72960001 286.78697798 -187.31018003 290.09611355 -195.6875 290.375 C-201.70443342 290.30233172 -205.63631905 289.21216425 -210 285 C-214.72792193 279.03099856 -216.63878241 273.66538894 -216 266 C-213.04633249 258.55506378 -208.31885609 253.76168388 -202.67333984 248.1875 C-201.71949788 247.2315086 -200.76652333 246.27465107 -199.81434631 245.31700134 C-197.24302297 242.73604194 -194.65947217 240.16766019 -192.07316542 237.60172653 C-189.36489535 234.91109702 -186.66724831 232.20985415 -183.96817017 229.51000977 C-179.44065099 224.98435893 -174.90547863 220.46649602 -170.36523438 215.95361328 C-165.11203824 210.73195797 -159.86946005 205.49983164 -154.63274419 200.26165199 C-149.59191076 195.21959978 -144.54539766 190.18327514 -139.49565506 185.15014648 C-137.34659879 183.00816045 -135.19925767 180.86447619 -133.05320358 178.71948242 C-130.53148937 176.19977119 -128.00475824 173.68520108 -125.47398186 171.17459297 C-124.09939984 169.8086738 -122.72971585 168.43783115 -121.3601532 167.06687927 C-120.54701157 166.26226761 -119.73386993 165.45765594 -118.89608765 164.62866211 C-118.18781515 163.9237413 -117.47954266 163.2188205 -116.74980736 162.49253845 C-115 161 -115 161 -113 161 C-112.2182082 158.71766189 -112.2182082 158.71766189 -112 156 C-113.15818872 153.71576395 -113.15818872 153.71576395 -115 151.5625 C-129.90549696 131.37178699 -135.08350563 104.5759914 -131.50390625 79.87109375 C-130.82692402 76.50913117 -129.99931587 73.28001258 -129 70 C-128.6596875 68.86820312 -128.319375 67.73640625 -127.96875 66.5703125 C-119.60829928 41.20651267 -102.65735182 19.26218991 -78.8125 6.73046875 C-55.29440867 -5.01789173 -25.16127925 -9.25935076 0 0 Z " fill="#FBFCFC" transform="translate(448,384)"/>
<path d="M0 0 C0.82017609 -0.00029205 1.64035217 -0.00058411 2.48538208 -0.00088501 C5.1799805 0.00050159 7.8742979 0.01603107 10.56884766 0.03173828 C12.44357146 0.0354708 14.31829722 0.03831664 16.19302368 0.04031372 C21.11510654 0.04793139 26.03707043 0.06756383 30.95910645 0.08972168 C35.9865559 0.11022034 41.01402466 0.11932403 46.04150391 0.12939453 C55.89702478 0.15081151 65.75245756 0.18492489 75.60791016 0.22705078 C75.2220298 1.11205513 75.2220298 1.11205513 74.82835388 2.01493835 C73.64553166 4.73371591 72.46849211 7.45496157 71.29150391 10.17626953 C70.68453674 11.56791321 70.68453674 11.56791321 70.06530762 12.9876709 C58.95364812 38.73805297 56.23806799 66.82191589 62.60791016 94.22705078 C62.75824707 94.88302246 62.90858398 95.53899414 63.06347656 96.21484375 C67.60847764 115.02255848 78.27707348 131.79373124 89.60791016 147.22705078 C90.2013623 148.04077148 90.79481445 148.85449219 91.40625 149.69287109 C98.22625006 159.1157626 98.22625006 159.1157626 105.29296875 168.35229492 C106.60791016 170.22705078 106.60791016 170.22705078 106.61572266 172.20751953 C105.15501268 175.13460115 103.06780333 176.55686024 100.48291016 178.53955078 C96.38900827 181.76150473 92.62282347 185.03377995 89.04541016 188.81689453 C85.00024904 192.78510965 81.30026019 192.52336087 75.98071289 192.51757812 C74.65815742 192.52765396 74.65815742 192.52765396 73.30888367 192.53793335 C70.38636673 192.55696883 67.46407904 192.5608412 64.54150391 192.56298828 C62.5070842 192.56941543 60.47266543 192.57614373 58.43824768 192.5831604 C54.16689921 192.59514921 49.89563169 192.59883988 45.62426758 192.59765625 C40.16920183 192.59745367 34.71466067 192.62468511 29.25971889 192.65920067 C25.05332594 192.68152421 20.84705776 192.68549202 16.64061165 192.6844368 C14.63090277 192.68678727 12.62119015 192.69557936 10.61153984 192.71110153 C-2.84129578 192.80522541 -13.48855947 192.68573939 -23.71240234 182.93408203 C-24.26669922 182.37076172 -24.82099609 181.80744141 -25.39208984 181.22705078 C-26.13458984 180.48455078 -26.87708984 179.74205078 -27.64208984 178.97705078 C-33.19376028 170.25299724 -33.97552868 161.49996431 -33.90966797 151.37719727 C-33.91510179 150.02235161 -33.92223146 148.66751187 -33.9309082 147.31268311 C-33.94899351 143.66593499 -33.94213663 140.0196444 -33.92939186 136.37288928 C-33.91918875 132.53789302 -33.92867747 128.70293315 -33.93493652 124.86793518 C-33.94219095 118.43166141 -33.93268256 111.9955719 -33.91357422 105.55932617 C-33.89180033 98.14001124 -33.89886927 90.72113599 -33.92087984 83.30183166 C-33.93908597 76.90656402 -33.9415671 70.51142802 -33.93112516 64.11614281 C-33.92491992 60.30747756 -33.92397217 56.49901839 -33.93727112 52.69036674 C-33.94890579 49.10893748 -33.94066706 45.52807019 -33.91769409 41.94670105 C-33.90996382 40.02120211 -33.92169693 38.09565511 -33.9342041 36.17018127 C-33.82234057 24.59220587 -30.53906251 15.58885234 -22.39208984 7.22705078 C-15.52892594 1.78430958 -8.72233287 -0.08210391 0 0 Z " fill="#1F62A7" transform="translate(207.39208984375,381.77294921875)"/>
<path d="M0 0 C0.62181152 0.21430664 1.24362305 0.42861328 1.88427734 0.64941406 C27.28995198 9.43556985 47.7481542 27.51903977 59.76171875 51.51953125 C71.14118711 77.05884185 72.84943731 105.69243592 63.3125 132.125 C58.55753217 144.4447575 51.82119518 155.14292134 43 165 C42.47277344 165.60972656 41.94554687 166.21945312 41.40234375 166.84765625 C24.41497543 185.22529512 -1.19516257 196.16977485 -25.9765625 197.2734375 C-45.93456759 197.78200071 -67.50738333 194.62814629 -84.19140625 182.72265625 C-86.73928181 180.75919664 -86.73928181 180.75919664 -88.98706055 181.24194336 C-94.39522818 183.27861534 -99.70084049 189.29456817 -103 194 C-103.55837814 196.55142126 -103.36770599 198.24062827 -103 200.80078125 C-103 212.37960773 -124.53091569 228.65243226 -132.28865051 236.42652893 C-133.9244004 238.06150134 -135.5610224 239.69560166 -137.19848633 241.32885742 C-139.69663968 243.82161995 -142.18936198 246.31972475 -144.68164062 248.81835938 C-146.29134591 250.42740428 -147.90136115 252.03613918 -149.51171875 253.64453125 C-150.2452507 254.38008743 -150.97878265 255.11564362 -151.73454285 255.87348938 C-155.77429433 259.89516979 -159.90210265 263.74927454 -164.23294067 267.45655823 C-167.0133904 269.88514802 -169.60079665 272.4934006 -172.1875 275.125 C-172.68185547 275.62386719 -173.17621094 276.12273437 -173.68554688 276.63671875 C-175.12520985 278.08965925 -176.56273194 279.54469092 -178 281 C-183.72960001 286.78697798 -187.31018003 290.09611355 -195.6875 290.375 C-201.70443342 290.30233172 -205.63631905 289.21216425 -210 285 C-214.72792193 279.03099856 -216.63878241 273.66538894 -216 266 C-213.04633249 258.55506378 -208.31885609 253.76168388 -202.67333984 248.1875 C-201.71949788 247.2315086 -200.76652333 246.27465107 -199.81434631 245.31700134 C-197.24302297 242.73604194 -194.65947217 240.16766019 -192.07316542 237.60172653 C-189.36489535 234.91109702 -186.66724831 232.20985415 -183.96817017 229.51000977 C-179.44065099 224.98435893 -174.90547863 220.46649602 -170.36523438 215.95361328 C-165.11203824 210.73195797 -159.86946005 205.49983164 -154.63274419 200.26165199 C-149.59191076 195.21959978 -144.54539766 190.18327514 -139.49565506 185.15014648 C-137.34659879 183.00816045 -135.19925767 180.86447619 -133.05320358 178.71948242 C-130.53148937 176.19977119 -128.00475824 173.68520108 -125.47398186 171.17459297 C-124.09939984 169.8086738 -122.72971585 168.43783115 -121.3601532 167.06687927 C-120.54701157 166.26226761 -119.73386993 165.45765594 -118.89608765 164.62866211 C-118.18781515 163.9237413 -117.47954266 163.2188205 -116.74980736 162.49253845 C-115 161 -115 161 -113 161 C-112.2182082 158.71766189 -112.2182082 158.71766189 -112 156 C-113.15818872 153.71576395 -113.15818872 153.71576395 -115 151.5625 C-129.90549696 131.37178699 -135.08350563 104.5759914 -131.50390625 79.87109375 C-130.82692402 76.50913117 -129.99931587 73.28001258 -129 70 C-128.6596875 68.86820312 -128.319375 67.73640625 -127.96875 66.5703125 C-119.60829928 41.20651267 -102.65735182 19.26218991 -78.8125 6.73046875 C-55.29440867 -5.01789173 -25.16127925 -9.25935076 0 0 Z M-84 38 C-84.63164062 38.56332031 -85.26328125 39.12664062 -85.9140625 39.70703125 C-99.89443952 52.85597615 -108.10302652 71.98672252 -109.23828125 90.98828125 C-109.85927144 114.96848295 -102.22674675 136.13737405 -85.625 153.75 C-69.45819791 169.00855479 -49.54110172 175.54417123 -27.6953125 175.20703125 C-6.16944855 174.49358761 11.59813374 164.97948106 26.3125 149.75 C42.12735277 131.52184177 47.42706527 109.64365617 46 86 C43.69586096 65.40937569 32.61018668 47.336434 17 34 C-13.23900217 10.85432516 -55.7738996 12.13481878 -84 38 Z " fill="#1E60A6" transform="translate(448,384)"/>
<path d="M0 0 C54.25294118 0 54.25294118 0 68.75 13.25 C76.76249673 21.72618288 80.0776356 33.67536056 80.3125 45.125 C79.91986151 58.23571124 76.27170831 70.42575994 67 80 C48.22802435 96.46207916 23.68531676 92 0 92 C0 61.64 0 31.28 0 0 Z " fill="#0B4075" transform="translate(758,449)"/>
<path d="M0 0 C53.73103234 0 53.73103234 0 67.875 13.66796875 C78.50123247 25.32947754 79.74317693 38.44698557 79.17480469 53.59326172 C78.39121368 64.38186526 72.58405333 73.93336686 64.8125 81.25 C45.90708066 96.17086908 23.54592517 92 0 92 C0 61.64 0 31.28 0 0 Z " fill="#0B4075" transform="translate(758,577)"/>
<path d="M0 0 C3.7590392 2.17155651 6.85930269 5.121917 9.9609375 8.1328125 C10.45722656 7.66230469 10.95351563 7.19179688 11.46484375 6.70703125 C17.9222243 0.78878684 23.3967835 -2.50344646 32.34765625 -2.13671875 C40.67645094 -1.27769508 45.60211077 0.94813502 51.26953125 7.1953125 C55.78495736 15.03734584 56.39520339 23.62479201 56.25390625 32.48828125 C56.24966141 33.51593094 56.24541656 34.54358063 56.24104309 35.60237122 C56.2244282 38.84196671 56.18680933 42.08090927 56.1484375 45.3203125 C56.13336841 47.53449614 56.11968393 49.74868966 56.10742188 51.96289062 C56.07458122 57.35311107 56.0229203 62.74285161 55.9609375 68.1328125 C50.3509375 68.1328125 44.7409375 68.1328125 38.9609375 68.1328125 C38.94635498 66.73522705 38.93177246 65.3376416 38.91674805 63.89770508 C38.85872919 58.70717928 38.78149587 53.51708565 38.69848633 48.3269043 C38.66525399 46.081533 38.63721681 43.8360785 38.61450195 41.59057617 C38.58092548 38.36080507 38.52860677 35.13179523 38.47265625 31.90234375 C38.46626633 30.90008255 38.4598764 29.89782135 38.45329285 28.8651886 C38.34168675 21.99200025 38.34168675 21.99200025 34.9609375 16.1328125 C30.70394041 13.29481444 26.95721882 13.37909666 21.9609375 14.1328125 C18.44581341 15.80088564 16.41687507 18.10217694 14.83056641 21.68798828 C13.69064714 26.20350227 13.60580878 30.48423495 13.546875 35.125 C13.52750885 36.07094025 13.5081427 37.01688049 13.4881897 37.9914856 C13.42866701 40.99683772 13.38211804 44.00222871 13.3359375 47.0078125 C13.29773258 49.05209954 13.25867939 51.09637092 13.21875 53.140625 C13.12298796 58.1378928 13.03885636 63.13523592 12.9609375 68.1328125 C7.6809375 68.1328125 2.4009375 68.1328125 -3.0390625 68.1328125 C-3.05364502 66.77075684 -3.06822754 65.40870117 -3.08325195 64.00537109 C-3.14133555 58.93967777 -3.21856841 53.87442425 -3.30151367 48.80908203 C-3.3347156 46.61905062 -3.3627622 44.42893461 -3.38549805 42.23876953 C-3.41913059 39.0858972 -3.47145198 35.93379677 -3.52734375 32.78125 C-3.53373367 31.80602386 -3.5401236 30.83079773 -3.54670715 29.82601929 C-3.6606206 24.52862385 -4.06449364 20.70843324 -7.0390625 16.1328125 C-9.99635027 13.72317061 -13.2704874 13.76828126 -17.01171875 13.88671875 C-20.25480044 14.28038763 -22.37003529 15.2707005 -25.0390625 17.1328125 C-28.57264991 22.4577141 -28.50942248 27.39192809 -28.55078125 33.5625 C-28.56873245 34.55283234 -28.58668365 35.54316467 -28.60517883 36.56350708 C-28.65915151 39.71156621 -28.69313606 42.85947483 -28.7265625 46.0078125 C-28.75974704 48.14845838 -28.79423775 50.28908444 -28.83007812 52.4296875 C-28.9148707 57.6639537 -28.98174434 62.89817626 -29.0390625 68.1328125 C-34.3190625 68.1328125 -39.5990625 68.1328125 -45.0390625 68.1328125 C-45.0390625 45.6928125 -45.0390625 23.2528125 -45.0390625 0.1328125 C-40.0890625 0.1328125 -35.1390625 0.1328125 -30.0390625 0.1328125 C-29.7090625 2.4428125 -29.3790625 4.7528125 -29.0390625 7.1328125 C-28.0490625 6.0190625 -28.0490625 6.0190625 -27.0390625 4.8828125 C-19.47670924 -2.55244238 -9.77705918 -4.11035549 0 0 Z " fill="#0A3E73" transform="translate(876.0390625,343.8671875)"/>
<path d="M0 0 C4.24382273 3.45245415 7.05110342 7.55713047 9.6875 12.3125 C10.19990234 13.20001953 10.19990234 13.20001953 10.72265625 14.10546875 C14.5638034 22.19867646 13.83846063 33.84030816 11.25 42.1875 C7.38295677 51.19703229 0.79851373 57.4683859 -8.05078125 61.47265625 C-16.23195618 64.51057095 -26.51783898 64.74584087 -34.75 61.75 C-42.88608867 57.91171232 -49.61053252 51.37013677 -53.28125 43.140625 C-56.7852791 33.21254256 -56.64600832 22.48206001 -52.5703125 12.77734375 C-48.26862063 4.3476308 -42.02679288 -2.05721526 -33.125 -5.5625 C-21.48215775 -8.90906567 -9.93091109 -6.7522672 0 0 Z " fill="#0B3E73" transform="translate(1231.3125,606.6875)"/>
<path d="M0 0 C1.24122192 0.90027586 2.4756395 1.81057326 3.6875 2.75 C2.21931332 5.85742423 0.48725 8.65471739 -1.4375 11.5 C-1.97632813 12.29921875 -2.51515625 13.0984375 -3.0703125 13.921875 C-3.48023438 14.52515625 -3.89015625 15.1284375 -4.3125 15.75 C-7.97956333 13.96220268 -11.47787768 11.9330743 -14.99609375 9.87109375 C-19.78791818 7.55194769 -25.05265848 7.18276219 -30.3125 7.75 C-33.83888984 9.01417749 -35.77243665 10.14025106 -38.25 12.9375 C-39.65789841 16.66428992 -39.85414959 20.02187623 -38.3125 23.75 C-33.36290739 29.07314677 -25.83789827 30.45098012 -19.12304688 32.57421875 C-8.8225995 35.96492339 0.09005448 40.06290794 5.6875 49.75 C8.02164302 56.75242907 7.94946184 67.25349324 4.7890625 74.046875 C-0.73338813 82.585132 -8.70368247 86.37569873 -18.3125 88.75 C-31.65573051 89.88277701 -44.54311966 88.2172302 -55.3125 79.75 C-56.69139448 78.12082672 -58.03651981 76.46097344 -59.3125 74.75 C-57.86177753 72.74406276 -56.40258971 70.74539826 -54.9375 68.75 C-54.525 68.17765625 -54.1125 67.6053125 -53.6875 67.015625 C-52.61078281 65.55684688 -51.46583422 64.14899024 -50.3125 62.75 C-49.6525 62.75 -48.9925 62.75 -48.3125 62.75 C-47.57 63.8328125 -47.57 63.8328125 -46.8125 64.9375 C-42.28782108 70.02776379 -37.3143874 72.41783666 -30.53515625 73.16796875 C-23.91883707 73.30458891 -19.10209888 73.21173345 -13.3125 69.75 C-10.91845225 66.81185049 -11.01381169 63.55726283 -10.8515625 59.84765625 C-11.56178627 56.61553619 -12.97437805 55.07693476 -15.3125 52.75 C-17.87141942 51.53757998 -20.21290343 50.57455307 -22.875 49.6875 C-23.58591797 49.43492432 -24.29683594 49.18234863 -25.02929688 48.92211914 C-27.11855899 48.18205419 -29.21358287 47.46216016 -31.3125 46.75 C-42.50774646 42.94116767 -50.63964279 39.72275841 -56.3125 28.75 C-58.59639205 21.84227742 -58.2914806 13.97274228 -55.3125 7.375 C-51.24118993 0.20995431 -44.89704627 -3.53101171 -37.3125 -6.25 C-24.40425174 -9.36200552 -11.07976557 -7.30572042 0 0 Z " fill="#0B3E74" transform="translate(812.3125,324.25)"/>
<path d="M0 0 C1.26015092 0.9026613 2.51443575 1.81396648 3.75 2.75 C2.46455342 6.31305823 0.95155344 9.07844233 -1.375 12.0625 C-1.91382813 12.75988281 -2.45265625 13.45726562 -3.0078125 14.17578125 C-3.41773438 14.69527344 -3.82765625 15.21476562 -4.25 15.75 C-4.90226562 15.34007812 -5.55453125 14.93015625 -6.2265625 14.5078125 C-13.8376062 9.81545813 -20.13393897 6.6247617 -29.25 7.75 C-32.60161246 9.13214122 -32.60161246 9.13214122 -35.25 10.75 C-35.91 10.75 -36.57 10.75 -37.25 10.75 C-38.61218419 14.83655256 -39.0019723 18.48631707 -38.25 22.75 C-33.83005268 28.12561161 -27.68592328 29.60195936 -21.25 31.75 C-0.82028225 38.89189895 -0.82028225 38.89189895 4.875 48.91796875 C7.97038425 55.39892953 7.68555631 63.47678336 6.171875 70.390625 C3.38879972 77.62662072 -2.13876842 82.63173119 -8.94140625 86.13671875 C-19.98037985 90.41713708 -32.45312866 90.31335242 -43.484375 86.09375 C-49.20986648 83.31187278 -54.68329973 80.1000504 -58.25 74.75 C-56.79927753 72.74406276 -55.34008971 70.74539826 -53.875 68.75 C-53.4625 68.17765625 -53.05 67.6053125 -52.625 67.015625 C-51.54828281 65.55684688 -50.40333422 64.14899024 -49.25 62.75 C-48.59 62.75 -47.93 62.75 -47.25 62.75 C-46.54875 63.6575 -45.8475 64.565 -45.125 65.5 C-42.00840675 69.2793171 -39.02080644 71.47055645 -34.25 72.75 C-26.64775531 73.47596543 -19.90909753 73.89973086 -13.25 69.75 C-10.56226164 65.71839246 -10.46492529 62.48550383 -11.25 57.75 C-15.71766539 51.26467927 -23.53553505 49.26803658 -30.73120117 46.99731445 C-40.78301563 43.79975111 -50.02321347 40.59709974 -55.25 30.796875 C-57.61265822 23.59815074 -57.79771395 14.23019033 -54.75 7.1875 C-50.39813406 0.31852692 -44.1169175 -4.12819633 -36.43359375 -6.58984375 C-23.4818492 -9.27554293 -11.10188413 -7.28615102 0 0 Z " fill="#0B3E73" transform="translate(1202.25,324.25)"/>
<path d="M0 0 C4.89022303 3.9896473 7.38560062 8.92813381 9 15 C9.38944452 18.91264227 9.35077169 22.79002954 9.29296875 26.71875 C9.28872391 27.81723267 9.28447906 28.91571533 9.28010559 30.04748535 C9.26340661 33.5319136 9.22576996 37.01574861 9.1875 40.5 C9.17244185 42.87238744 9.15875543 45.24478401 9.14648438 47.6171875 C9.11353173 53.41168448 9.06180965 59.20574189 9 65 C4.05 65 -0.9 65 -6 65 C-6.495 61.04 -6.495 61.04 -7 57 C-7.66 57.7425 -8.32 58.485 -9 59.25 C-14.18060364 64.30108855 -19.11918932 66.25519508 -26.375 66.5625 C-34.09074125 66.31158159 -40.02734479 63.97265521 -45.5 58.5 C-49.17286575 52.37855708 -49.76075156 47.03448196 -49 40 C-47.39337581 33.7028958 -43.74801145 30.47030838 -38.296875 27.18359375 C-28.59572296 22.18453071 -17.60014724 22.86600937 -7 23 C-8.31618951 16.06874202 -8.31618951 16.06874202 -13 11 C-21.4804668 8.17317773 -28.70735186 10.2271088 -36.56640625 13.90625 C-39 15 -39 15 -41 15 C-41.70180531 13.5903653 -42.38593958 12.17192359 -43.0625 10.75 C-43.44535156 9.96109375 -43.82820312 9.1721875 -44.22265625 8.359375 C-45.11530841 5.65001868 -45.24420216 4.56348548 -44 2 C-31.17274325 -7.05159248 -13.42600057 -8.09238391 0 0 Z " fill="#0B3F74" transform="translate(992,347)"/>
<path d="M0 0 C4.95258308 4.01209255 7.32205328 9.1643367 8.625 15.3125 C8.70969708 16.96147611 8.74278092 18.61350408 8.73852539 20.26464844 C8.73844986 21.24536316 8.73837433 22.22607788 8.73829651 23.23651123 C8.73313522 24.28768127 8.72797394 25.33885132 8.72265625 26.421875 C8.7212413 27.50382141 8.71982635 28.58576782 8.71836853 29.70050049 C8.71277318 33.1545285 8.7002215 36.60849159 8.6875 40.0625 C8.6824844 42.40494698 8.6779216 44.74739498 8.67382812 47.08984375 C8.66280527 52.83075417 8.64554379 58.57161608 8.625 64.3125 C3.345 64.3125 -1.935 64.3125 -7.375 64.3125 C-7.705 62.3325 -8.035 60.3525 -8.375 58.3125 C-9.674375 59.488125 -9.674375 59.488125 -11 60.6875 C-16.47581499 65.6418088 -23.07809862 65.75334997 -30.11328125 65.625 C-36.25571211 65.03650363 -41.17066052 63.02106342 -45.3125 58.375 C-49.51842036 52.12984552 -50.17552838 46.7147884 -49.375 39.3125 C-47.83845326 33.29006175 -44.36608683 29.71871547 -39.109375 26.56640625 C-29.01761794 21.9386148 -18.23919424 21.90166913 -7.375 22.3125 C-8.1742931 16.28034643 -8.1742931 16.28034643 -11.3125 11.3125 C-17.6900305 8.220364 -24.2952208 8.36026557 -30.98828125 10.4296875 C-34.15330294 11.6541877 -37.27491507 12.93249399 -40.375 14.3125 C-41.24127399 12.71483897 -42.09266465 11.10910056 -42.9375 9.5 C-43.41316406 8.60667969 -43.88882813 7.71335937 -44.37890625 6.79296875 C-45.375 4.3125 -45.375 4.3125 -44.375 1.3125 C-30.73325333 -6.77149803 -13.69447975 -9.28997055 0 0 Z " fill="#0B3E73" transform="translate(1059.375,476.6875)"/>
<path d="M0 0 C6.83880353 4.52389879 11.90243644 9.4167953 14.765625 17.16796875 C15.178125 18.21984375 15.590625 19.27171875 16.015625 20.35546875 C17.09842747 25.85971464 16.765625 31.55822865 16.765625 37.16796875 C1.255625 37.16796875 -14.254375 37.16796875 -30.234375 37.16796875 C-27.11935819 47.40651262 -27.11935819 47.40651262 -20.234375 53.16796875 C-12.48909485 55.7497288 -4.47602162 54.59129261 2.765625 51.16796875 C3.755625 50.50796875 4.745625 49.84796875 5.765625 49.16796875 C8.405625 52.13796875 11.045625 55.10796875 13.765625 58.16796875 C7.71511733 64.97478988 1.02041259 67.78836593 -8.01953125 68.44140625 C-19.49370954 68.82740828 -28.91793999 67.50644124 -37.734375 59.41796875 C-46.57373283 49.71488989 -47.04269546 37.98275345 -46.46533203 25.51025391 C-45.70201257 17.76893586 -41.87556241 10.433077 -36.234375 5.16796875 C-26.18218573 -1.65719346 -11.76552761 -5.64427338 0 0 Z " fill="#0A3D72" transform="translate(1186.234375,473.83203125)"/>
<path d="M0 0 C8.13234645 6.18825016 12.2260298 14.09533305 14 24 C14 27.63 14 31.26 14 35 C-1.84 35 -17.68 35 -34 35 C-30.41753786 44.84821243 -30.41753786 44.84821243 -23.265625 51.1015625 C-17.69356301 53.31117329 -10.02435501 53.04917293 -4.41015625 51.1015625 C-2.56977271 50.13510411 -0.77951346 49.07442322 1 48 C1.99 48 2.98 48 4 48 C5.60546875 49.96875 5.60546875 49.96875 7.1875 52.5 C7.71730469 53.3353125 8.24710938 54.170625 8.79296875 55.03125 C9.19128906 55.6809375 9.58960938 56.330625 10 57 C-0.3009546 65.67301082 -9.7690974 67.00233777 -22.93994141 66.20703125 C-31.03903149 65.39309093 -37.77478136 61.12130291 -43 55 C-49.47306168 44.75510339 -51.85776247 33.71881703 -49.3125 21.7734375 C-46.31297818 11.90001151 -41.05227797 3.91793221 -31.85546875 -1.19140625 C-21.56178348 -5.96408424 -9.93419085 -5.50867904 0 0 Z " fill="#0B3D72" transform="translate(1012,604)"/>
<path d="M0 0 C2.0234375 1.125 2.0234375 1.125 3.875 2.375 C4.50664063 2.7875 5.13828125 3.2 5.7890625 3.625 C11.7398468 8.0817576 14.56893499 14.45680498 16.875 21.375 C16.875 26.655 16.875 31.935 16.875 37.375 C1.695 37.375 -13.485 37.375 -29.125 37.375 C-26.32365351 47.39537832 -26.32365351 47.39537832 -19.125 53.375 C-11.86980487 55.79339838 -4.75475458 55.02970612 2.125 51.875 C3.6925 51.05 5.26 50.225 6.875 49.375 C9.185 52.345 11.495 55.315 13.875 58.375 C8.22411896 64.73224117 1.62355142 68.07389643 -6.8828125 68.61328125 C-15.38516012 68.82851823 -22.54650166 68.7076132 -30.125 64.375 C-31.08792969 63.86646484 -31.08792969 63.86646484 -32.0703125 63.34765625 C-38.41326492 59.48971333 -41.85972229 52.9758417 -44.265625 46.12890625 C-47.223997 33.20619948 -45.78137988 20.93024173 -39.03125 9.52734375 C-30.85919924 -1.88434141 -12.60447086 -5.27374562 0 0 Z " fill="#0A3D72" transform="translate(984.125,473.625)"/>
<path d="M0 0 C9.70952048 10.15086232 10.75 18.96475181 10.75 32.875 C-4.76 32.875 -20.27 32.875 -36.25 32.875 C-33.13498319 43.11354387 -33.13498319 43.11354387 -26.25 48.875 C-18.50471985 51.45676005 -10.49164662 50.29832386 -3.25 46.875 C-2.26 46.215 -1.27 45.555 -0.25 44.875 C0.95254524 46.11053276 2.13666232 47.36402339 3.3125 48.625 C3.97378906 49.32109375 4.63507812 50.0171875 5.31640625 50.734375 C6.75 52.875 6.75 52.875 6.796875 54.94140625 C5.26280479 57.77485682 3.27505929 58.60049925 0.4375 60.0625 C-0.52800781 60.57167969 -1.49351562 61.08085938 -2.48828125 61.60546875 C-11.00545767 65.52071958 -23.98309897 65.54130969 -32.8125 62.375 C-40.56171212 58.58738855 -46.68961998 52.70783604 -50.25 44.875 C-53.70172168 34.59514524 -53.92612905 22.35225584 -49.57421875 12.3046875 C-44.83251729 3.60457449 -39.18371967 -1.68170367 -30.0625 -5.4375 C-18.73160977 -7.48077529 -9.6485003 -6.30863481 0 0 Z " fill="#0B3D73" transform="translate(898.25,606.125)"/>
<path d="M0 0 C5.28 0 10.56 0 16 0 C16.33 18.15 16.66 36.3 17 55 C26.00910625 44.07147321 26.00910625 44.07147321 34.125 32.5 C36.28622593 29.76680501 37.77030178 28.24808994 41.23388672 27.54931641 C46.86758552 27.06803478 52.38562848 27.43456482 58 28 C55.35621695 32.15104326 52.57311552 35.71361736 49.1875 39.3125 C47.45594244 41.20614987 45.72671409 43.1019326 44 45 C43.24847656 45.825 42.49695312 46.65 41.72265625 47.5 C41.07167969 48.263125 40.42070313 49.02625 39.75 49.8125 C39.16734375 50.47894531 38.5846875 51.14539063 37.984375 51.83203125 C36.74982872 54.0139462 36.74982872 54.0139462 37.4453125 56.6328125 C39.62800363 61.36014857 42.3363497 65.67168338 45.125 70.0625 C45.70596436 70.98973877 46.28692871 71.91697754 46.88549805 72.87231445 C48.58511695 75.58486376 50.29173457 78.29289023 52 81 C53.61034513 83.55870342 55.21411398 86.12131484 56.8125 88.6875 C57.43769531 89.68136719 58.06289062 90.67523438 58.70703125 91.69921875 C60 94 60 94 60 96 C54.06 96 48.12 96 42 96 C40.96359375 94.18113281 39.9271875 92.36226563 38.859375 90.48828125 C37.84428653 88.71368451 36.82773185 86.93993551 35.81103516 85.16625977 C35.10930442 83.9402493 34.40908317 82.71337349 33.71044922 81.4855957 C32.70162454 79.71331668 31.68727684 77.94429831 30.671875 76.17578125 C30.0644043 75.11270752 29.45693359 74.04963379 28.83105469 72.9543457 C27.06714394 70.10833452 25.14781927 67.56452938 23 65 C19.3957058 67.68648984 17.34134862 69.35439394 16.41113281 73.83886719 C16.1859155 77.1947071 16.1174079 80.51170065 16.125 83.875 C16.104375 85.0403125 16.08375 86.205625 16.0625 87.40625 C16.01554468 90.27052424 16.00425655 93.13534407 16 96 C10.72 96 5.44 96 0 96 C0 64.32 0 32.64 0 0 Z " fill="#0B3E73" transform="translate(1222,316)"/>
<path d="M0 0 C5.2087697 4.24174072 7.52128166 9.5659483 9 16 C9.37317374 19.94715385 9.35154588 23.85459206 9.29296875 27.81640625 C9.28872391 28.91347397 9.28447906 30.01054169 9.28010559 31.14085388 C9.26342927 34.61499478 9.22579717 38.08853699 9.1875 41.5625 C9.17243891 43.93033011 9.15875301 46.2981694 9.14648438 48.66601562 C9.11356187 54.44423804 9.06185597 60.22201782 9 66 C3.72 66 -1.56 66 -7 66 C-7.029729 64.01021118 -7.029729 64.01021118 -7.06005859 61.98022461 C-7.1363656 57.03944528 -7.22504403 52.09895083 -7.31738281 47.15844727 C-7.35556906 45.02373903 -7.39043968 42.88896871 -7.421875 40.75415039 C-7.46775077 37.67832314 -7.52570794 34.6029194 -7.5859375 31.52734375 C-7.59748871 30.57915268 -7.60903992 29.63096161 -7.62094116 28.65403748 C-7.73620429 23.43083004 -8.1054195 18.89711952 -10 14 C-14.55105149 11.44697111 -19.8883542 11.40364132 -25 12 C-29.38264022 13.75305609 -32.08911634 16.71547256 -34 21 C-34.5924055 24.47639658 -34.60483759 27.90891529 -34.609375 31.4296875 C-34.62591125 32.42001984 -34.64244751 33.41035217 -34.65948486 34.43069458 C-34.70788329 37.57886 -34.72931811 40.72654261 -34.75 43.875 C-34.77816644 46.01564918 -34.8080948 48.15627595 -34.83984375 50.296875 C-34.9136404 55.53121025 -34.96326511 60.76527876 -35 66 C-40.28 66 -45.56 66 -51 66 C-51 43.56 -51 21.12 -51 -2 C-45.72 -2 -40.44 -2 -35 -2 C-34.67 -0.02 -34.34 1.96 -34 4 C-33.56429688 3.59007812 -33.12859375 3.18015625 -32.6796875 2.7578125 C-23.20512893 -5.81440716 -11.08175988 -6.57128919 0 0 Z " fill="#0A3D73" transform="translate(1375,346)"/>
<path d="M0 0 C5.38082115 5.6310919 7.8209933 12.01709805 7.80102539 19.76464844 C7.80094986 20.74536316 7.80087433 21.72607788 7.80079651 22.73651123 C7.79563522 23.78768127 7.79047394 24.83885132 7.78515625 25.921875 C7.7837413 27.00382141 7.78232635 28.08576782 7.78086853 29.20050049 C7.77527318 32.6545285 7.7627215 36.10849159 7.75 39.5625 C7.7449844 41.90494698 7.7404216 44.24739498 7.73632812 46.58984375 C7.72530527 52.33075417 7.70804379 58.07161608 7.6875 63.8125 C2.4075 63.8125 -2.8725 63.8125 -8.3125 63.8125 C-8.32708252 62.51103027 -8.34166504 61.20956055 -8.35668945 59.86865234 C-8.41478934 55.02658008 -8.49202191 50.18496715 -8.57495117 45.34326172 C-8.60814549 43.25023876 -8.63619445 41.15712747 -8.65893555 39.06396484 C-8.69258231 36.05007388 -8.74490393 33.03698837 -8.80078125 30.0234375 C-8.80717117 29.09195892 -8.8135611 28.16048035 -8.82014465 27.20077515 C-8.93693598 22.00580409 -9.4122694 18.30372182 -12.3125 13.8125 C-15.94159509 10.61035727 -19.42286172 10.28594146 -24.09765625 10.46484375 C-27.65193214 11.02274596 -29.6720828 12.42355111 -32.3125 14.8125 C-35.71943716 20.08114867 -35.78157266 24.73402109 -35.82421875 30.8046875 C-35.84216995 31.75062775 -35.86012115 32.69656799 -35.87861633 33.6711731 C-35.93256637 36.67657079 -35.96656604 39.68181104 -36 42.6875 C-36.03318657 44.73179267 -36.06767747 46.7760646 -36.10351562 48.8203125 C-36.18828415 53.81759448 -36.25516839 58.81483099 -36.3125 63.8125 C-41.5925 63.8125 -46.8725 63.8125 -52.3125 63.8125 C-52.3125 41.7025 -52.3125 19.5925 -52.3125 -3.1875 C-47.0325 -3.1875 -41.7525 -3.1875 -36.3125 -3.1875 C-35.9825 -1.2075 -35.6525 0.7725 -35.3125 2.8125 C-34.87679688 2.40257812 -34.44109375 1.99265625 -33.9921875 1.5703125 C-23.89894302 -7.5616706 -11.22972602 -7.41585681 0 0 Z " fill="#0B4176" transform="translate(1307.3125,605.1875)"/>
<path d="M0 0 C28.55841121 0 28.55841121 0 38 9 C45.58636655 17.57085687 45.74698881 26.96171753 45.1953125 37.88720703 C44.50631374 45.34045108 40.74743283 52.22464883 35 57 C22.56299687 64.46996288 16.91697652 63 0 63 C0 42.21 0 21.42 0 0 Z " fill="#FCFCFD" transform="translate(775,463)"/>
<path d="M0 0 C27.86486486 0 27.86486486 0 36 7 C43.38149281 14.99964738 45.60804205 23.01467919 45.26953125 33.796875 C44.41578372 43.94286017 40.6479833 50.21969714 33 57 C22.76774695 63.91269859 12.64776608 62 0 62 C0 41.54 0 21.08 0 0 Z " fill="#FCFCFD" transform="translate(775,592)"/>
<path d="M0 0 C4.39575789 0.69762028 7.23703813 3.31125688 10.2890625 6.36328125 C10.68670513 8.35149438 11.02681599 10.35272464 11.2890625 12.36328125 C12.07410156 12.51023437 12.85914063 12.6571875 13.66796875 12.80859375 C26.34355238 15.51479197 26.34355238 15.51479197 30.2890625 21.36328125 C31.86433563 25.89116057 31.7602608 29.86464039 29.9765625 34.30078125 C28.2890625 37.36328125 28.2890625 37.36328125 26.2890625 39.36328125 C22.64667348 40.05533516 18.77940817 40.35800034 15.609375 38.2421875 C15.13242187 37.78714844 14.65546875 37.33210938 14.1640625 36.86328125 C11.45623434 34.08680837 11.45623434 34.08680837 7.7265625 33.67578125 C4.00680753 34.41973224 2.62540662 35.39215911 0.40625 38.4453125 C-1.22995403 41.25432012 -2.46559709 44.17966819 -3.62109375 47.21484375 C-6.50286782 52.89576037 -11.00695942 54.66777726 -16.76953125 56.59375 C-22.0164104 57.9664395 -26.84356614 58.59071741 -31.9375 56.41015625 C-36.88523334 53.48228409 -41.84792712 49.9523124 -43.7109375 44.36328125 C-44.18807608 39.40104002 -43.54010807 36.27961659 -41.171875 32.0390625 C-37.29476248 27.59178637 -34.11681331 26.15812989 -28.3125 25.75390625 C-26.32085267 25.68795766 -24.3284757 25.64156244 -22.3359375 25.61328125 C-21.31371094 25.58363281 -20.29148437 25.55398438 -19.23828125 25.5234375 C-16.72908897 25.45308631 -14.22080696 25.40021919 -11.7109375 25.36328125 C-12.36670701 20.6309027 -12.36670701 20.6309027 -13.16796875 15.921875 C-13.87235809 11.7187606 -13.98567991 9.89314161 -11.9609375 5.98828125 C-11.2184375 5.12203125 -10.4759375 4.25578125 -9.7109375 3.36328125 C-9.25847656 2.82316406 -8.80601562 2.28304688 -8.33984375 1.7265625 C-5.70994098 -0.47448322 -3.30546639 -0.10228642 0 0 Z " fill="#1D5FA6" transform="translate(440.7109375,452.63671875)"/>
<path d="M0 0 C1.11109131 0.00700928 1.11109131 0.00700928 2.24462891 0.01416016 C9.88255505 0.21825855 16.37422974 2.18698649 22.75 6.4375 C21.43938409 10.67179756 19.80643741 14.51157404 17.75 18.4375 C17.14671875 18.16035156 16.5434375 17.88320313 15.921875 17.59765625 C15.12265625 17.23542969 14.3234375 16.87320312 13.5 16.5 C12.71109375 16.14035156 11.9221875 15.78070313 11.109375 15.41015625 C5.38212226 13.04908682 -0.39160825 12.36560309 -6.25 14.5625 C-8.52941163 16.33950638 -8.52941163 16.33950638 -8.875 19.4375 C-8.57194206 22.53514491 -8.57194206 22.53514491 -6.265625 23.9453125 C-1.6982196 26.20534989 3.10469083 27.56434852 7.98046875 29.01171875 C14.31067942 31.00121353 19.52020514 33.56034534 23.6875 38.9375 C25.54672849 45.06201739 26.06734024 51.77236671 23.87109375 57.8828125 C20.40972606 63.89165542 15.66057278 67.34603521 9.25 69.75 C-2.1188964 72.02377928 -13.52663231 71.21219141 -23.48046875 65.05859375 C-25.11530061 63.91323251 -26.69128579 62.68447137 -28.25 61.4375 C-25.775 56.4875 -25.775 56.4875 -23.25 51.4375 C-19.41091331 51.4375 -18.63930388 51.50931853 -15.625 53.375 C-11.05356667 56.1686537 -8.14414277 56.67515422 -2.875 56.75 C-2.20210937 56.77900391 -1.52921875 56.80800781 -0.8359375 56.83789062 C2.61231566 56.88201197 4.41438405 56.69405258 7.1875 54.57421875 C8.89651613 52.51882041 8.89651613 52.51882041 9.375 49.9375 C8.59733602 46.82684407 7.23415405 46.0645005 4.59521484 44.39648438 C1.31346979 42.69091484 -2.18108251 41.8469781 -5.75 40.9375 C-13.59742099 38.93771785 -19.46174944 36.35386192 -24.25 29.4375 C-26.15948276 23.70905171 -26.16185715 17.66187495 -23.625 12.125 C-18.45968636 3.13554188 -9.83640599 -0.1364614 0 0 Z " fill="#0B3D73" transform="translate(904.25,471.5625)"/>
<path d="M0 0 C3.0625 1.6875 3.0625 1.6875 5 3 C4.57405412 4.44096586 4.13373367 5.87768712 3.6875 7.3125 C3.44386719 8.11300781 3.20023438 8.91351563 2.94921875 9.73828125 C1.95817977 12.09964573 0.91925057 13.33879993 -1 15 C-1.53109375 14.72285156 -2.0621875 14.44570313 -2.609375 14.16015625 C-3.31578125 13.79792969 -4.0221875 13.43570312 -4.75 13.0625 C-5.44609375 12.70285156 -6.1421875 12.34320313 -6.859375 11.97265625 C-12.17263442 9.55841976 -17.77151158 9.25496421 -23.4375 10.5625 C-25.98749255 12.90849314 -25.75432465 15.68338281 -26 19 C-20.95418647 21.78034623 -15.92784269 23.71911243 -10.4375 25.4375 C-3.6095267 27.62607115 1.43274883 29.68741785 5.9375 35.5 C7.91280596 42.00689023 7.94723416 48.9354189 5.9375 55.4375 C1.18905641 61.71769958 -4.16362267 65.63174364 -12 67 C-22.78986341 67.97869982 -34.03038716 67.38422869 -42.75 60.25 C-43.4925 59.5075 -44.235 58.765 -45 58 C-43.77472971 53.94718288 -42.30119506 50.55639236 -40 47 C-38.01412392 47.97969886 -36.05439738 48.96881824 -34.1328125 50.0703125 C-27.41419501 53.59954737 -20.47649756 54.03348845 -13 53 C-10.59112271 51.79969501 -10.59112271 51.79969501 -9 50 C-8.41666667 47 -8.41666667 47 -9 44 C-11.084648 41.37018581 -12.97535179 40.46253838 -16.16796875 39.5703125 C-16.97943359 39.33183594 -17.79089844 39.09335937 -18.62695312 38.84765625 C-20.31385317 38.37156699 -22.00134147 37.8975564 -23.68945312 37.42578125 C-30.32238021 35.47092331 -36.58212876 33.02233905 -41 27.5 C-42.76133605 21.33532381 -43.27625734 14.69878285 -41.15625 8.5546875 C-33.4117566 -5.20748658 -13.07190905 -6.52126699 0 0 Z " fill="#0B3D73" transform="translate(1123,475)"/>
<path d="M0 0 C0 6.27 0 12.54 0 19 C5.61 19 11.22 19 17 19 C17 23.29 17 27.58 17 32 C11.39 32 5.78 32 0 32 C0.11984651 37.2145983 0.24247491 42.42897367 0.37231445 47.64331055 C0.41563934 49.41735937 0.45731619 51.19144923 0.49731445 52.96557617 C0.5550762 55.51493705 0.61875362 58.0640918 0.68359375 60.61328125 C0.70030624 61.40712723 0.71701874 62.20097321 0.73423767 63.01887512 C0.82117718 66.24683077 0.97250366 68.91751099 2 72 C4.76452033 73.38226016 7.0461363 73.09525387 10.125 73.0625 C11.22070312 73.05347656 12.31640625 73.04445313 13.4453125 73.03515625 C14.28835938 73.02355469 15.13140625 73.01195312 16 73 C17.17246771 77.09902098 17.07076062 80.75436258 17 85 C11.03165098 88.18311948 5.72492435 88.96728364 -1 88 C-6.286421 86.33411103 -10.67866894 84.26091521 -13.5625 79.375 C-15.13997208 75.67136991 -16.12580412 72.88634006 -16.11352539 68.89575195 C-16.11344986 68.07512772 -16.11337433 67.25450348 -16.11329651 66.40901184 C-16.10813522 65.52767075 -16.10297394 64.64632965 -16.09765625 63.73828125 C-16.0962413 62.83248825 -16.09482635 61.92669525 -16.09336853 60.99345398 C-16.08777001 58.09976909 -16.07521781 55.20616151 -16.0625 52.3125 C-16.05748481 50.35091258 -16.05292193 48.38932394 -16.04882812 46.42773438 C-16.03780107 41.61845979 -16.02053747 36.809243 -16 32 C-19.63 32 -23.26 32 -27 32 C-27 27.71 -27 23.42 -27 19 C-23.37 19 -19.74 19 -16 19 C-16 13.39 -16 7.78 -16 2 C-10.34509154 0.77731709 -5.84044472 0 0 0 Z " fill="#0B3E73" transform="translate(1088,325)"/>
<path d="M0 0 C0 6.6 0 13.2 0 20 C5.94 20 11.88 20 18 20 C18 24.29 18 28.58 18 33 C12.39 33 6.78 33 1 33 C1.07395158 38.35766427 1.15673214 43.7136432 1.26245117 49.07055664 C1.2957174 50.89305919 1.32374406 52.71566519 1.34643555 54.53833008 C1.37995081 57.1575125 1.43226352 59.77574548 1.48828125 62.39453125 C1.49467117 63.21025101 1.5010611 64.02597076 1.50764465 64.8664093 C1.5133323 69.06795144 1.5133323 69.06795144 3.31217957 72.72367859 C6.0614222 74.80264219 8.66939927 74.23372637 12 74 C13.33881481 73.68941379 14.67399172 73.36137368 16 73 C18.42857143 81.42857143 18.42857143 81.42857143 17 86 C10.27059625 88.44705591 2.42411134 89.73522682 -4.41015625 87.0546875 C-10.19753968 83.61471006 -13.80844983 79.62962971 -15.59857178 73.03634644 C-16.33503359 69.30045719 -16.2432553 65.5794432 -16.1953125 61.78515625 C-16.1924826 60.92941513 -16.18965271 60.07367401 -16.18673706 59.19200134 C-16.17561935 56.48202009 -16.15053082 53.77237991 -16.125 51.0625 C-16.11495931 49.21549959 -16.10583537 47.36849396 -16.09765625 45.52148438 C-16.07570763 41.01419323 -16.04123654 36.50715427 -16 32 C-19.3 32 -22.6 32 -26 32 C-26 28.04 -26 24.08 -26 20 C-22.37 20 -18.74 20 -15 20 C-15 14.06 -15 8.12 -15 2 C-1.125 0 -1.125 0 0 0 Z " fill="#104075" transform="translate(939,582)"/>
<path d="M0 0 C0 6.27 0 12.54 0 19 C5.61 19 11.22 19 17 19 C17 22.96 17 26.92 17 31 C11.39 31 5.78 31 0 31 C0.09698889 36.19656252 0.19975114 41.39233731 0.31738281 46.58837891 C0.35563771 48.3555607 0.3904967 50.12281944 0.421875 51.89013672 C0.46760152 54.43224563 0.52558289 56.97382648 0.5859375 59.515625 C0.59748871 60.30430969 0.60903992 61.09299438 0.62094116 61.90557861 C0.73296247 67.27133725 0.73296247 67.27133725 3 72 C5.72842061 73.36421031 7.60953318 72.87807211 10.625 72.5625 C12.39875 72.376875 14.1725 72.19125 16 72 C16.66 75.96 17.32 79.92 18 84 C11.52818796 87.61217416 5.30393609 87.68798366 -2 87 C-6.77003142 85.38159648 -9.80607713 82.88450079 -13 79 C-15.71099586 73.00902882 -16.41744044 68.21329775 -16.29296875 61.6875 C-16.28872391 60.83317383 -16.28447906 59.97884766 -16.28010559 59.09863281 C-16.26345703 56.39875318 -16.22583223 53.69964989 -16.1875 51 C-16.17243523 49.15756295 -16.15874998 47.31511407 -16.14648438 45.47265625 C-16.11359906 40.98147661 -16.06191456 36.49086944 -16 32 C-19.63 32 -23.26 32 -27 32 C-27 27.71 -27 23.42 -27 19 C-23.37 19 -19.74 19 -16 19 C-16.020625 17.700625 -16.04125 16.40125 -16.0625 15.0625 C-16.07004972 10.30617675 -15.59887117 5.71611047 -15 1 C-9.75103182 -0.07671142 -5.60877798 0 0 0 Z " fill="#0B3E73" transform="translate(1121,583)"/>
<path d="M0 0 C1.64651567 1.155854 3.24388642 2.38125486 4.828125 3.62109375 C3.4584086 7.61609993 1.57090078 10.42118867 -1.171875 13.62109375 C-6.171875 11.62109375 -6.171875 11.62109375 -8.484375 10.578125 C-13.9202011 8.64240204 -20.12383248 8.5624037 -25.58984375 10.4609375 C-29.78456866 12.79833581 -32.66126441 15.68095186 -34.546875 20.1171875 C-36.25372525 26.95525633 -36.46381111 34.75213912 -33.484375 41.24609375 C-30.75052324 45.76709241 -26.97118934 48.53250325 -22.171875 50.62109375 C-14.23259505 51.77020006 -8.12540553 49.09785902 -1.171875 45.62109375 C1.138125 48.26109375 3.448125 50.90109375 5.828125 53.62109375 C3.91907137 57.43920101 3.50360409 58.19791395 0.140625 60.24609375 C-0.50261719 60.65085937 -1.14585938 61.055625 -1.80859375 61.47265625 C-10.43281512 65.66360019 -20.85828183 66.00296801 -30.15234375 63.96875 C-39.85677773 60.46311726 -45.37854512 54.15756303 -50.04296875 45.171875 C-53.59543495 37.1450223 -53.47926772 26.17190971 -51.48828125 17.71875 C-50.55155525 15.50714381 -49.50695575 13.61542246 -48.171875 11.62109375 C-47.73617188 10.92886719 -47.30046875 10.23664062 -46.8515625 9.5234375 C-42.09836547 2.57545824 -35.87995121 -2.55638689 -27.71875 -4.90625 C-17.5495177 -6.79348483 -8.73520784 -5.54591433 0 0 Z " fill="#0B3D73" transform="translate(1086.171875,605.37890625)"/>
<path d="M0 0 C0.78503906 -0.00257813 1.57007813 -0.00515625 2.37890625 -0.0078125 C4.4375 0.125 4.4375 0.125 6.4375 1.125 C6.1075 6.075 5.7775 11.025 5.4375 16.125 C3.4265625 16.0321875 3.4265625 16.0321875 1.375 15.9375 C-3.23755368 15.95200489 -6.49648816 16.81295405 -10.5625 19.125 C-16.32106713 25.03920408 -16.87213244 30.70748598 -16.9765625 38.58203125 C-16.99592865 39.48499435 -17.0152948 40.38795746 -17.0352478 41.31828308 C-17.09484082 44.19126047 -17.14134769 47.06427837 -17.1875 49.9375 C-17.22569845 51.88999105 -17.26475127 53.84246559 -17.3046875 55.79492188 C-17.40052569 60.57147984 -17.48463152 65.34811667 -17.5625 70.125 C-22.8425 70.125 -28.1225 70.125 -33.5625 70.125 C-33.5625 47.685 -33.5625 25.245 -33.5625 2.125 C-28.6125 2.125 -23.6625 2.125 -18.5625 2.125 C-18.2325 5.095 -17.9025 8.065 -17.5625 11.125 C-17.02625 10.2175 -16.49 9.31 -15.9375 8.375 C-12.13907761 2.65709014 -6.7637877 -0.02228596 0 0 Z " fill="#0A3C72" transform="translate(1049.5625,341.875)"/>
<path d="M0 0 C5.34493379 2.57702165 8.65927289 6.25150942 11.25 11.5625 C12.93782695 19.29837351 12.98719099 26.8666784 9.34375 34.0234375 C6.44537122 38.28675047 2.89015145 41.36994952 -2 43 C-7.61599916 43.36826224 -11.17665989 43.21556007 -16 40 C-21.26347738 34.73652262 -24.07412521 29.07128821 -24.375 21.5625 C-24.10816232 14.53981736 -22.03445744 8.03445744 -17 3 C-11.54132884 -0.87480802 -6.49283532 -0.79288355 0 0 Z " fill="#FAFBFC" transform="translate(1216,614)"/>
<path d="M0 0 C5.28 0 10.56 0 16 0 C16 22.44 16 44.88 16 68 C10.72 68 5.44 68 0 68 C0 45.56 0 23.12 0 0 Z " fill="#0B4377" transform="translate(850,473)"/>
<path d="M0 0 C5.28 0 10.56 0 16 0 C16 22.44 16 44.88 16 68 C10.72 68 5.44 68 0 68 C0 45.56 0 23.12 0 0 Z " fill="#093B71" transform="translate(1293,344)"/>
<path d="M0 0 C5.28 0 10.56 0 16 0 C16 22.11 16 44.22 16 67 C10.72 67 5.44 67 0 67 C0 44.89 0 22.78 0 0 Z " fill="#0A4277" transform="translate(1149,602)"/>
<path d="M0 0 C3.55393555 3.00110113 6.49402081 5.56266678 7.04296875 10.41015625 C6.73141546 16.95277541 4.02855184 22.43619641 -0.1875 27.375 C-6.27843214 32.27853021 -12.58252732 32.9321194 -20.20703125 32.94140625 C-24.43998842 32.13697795 -26.995477 30.021127 -29.5 26.5625 C-30.95658051 21.92792565 -30.65193841 17.85798698 -28.75 13.4375 C-23.38344073 3.65589906 -11.17565335 -5.6973919 0 0 Z " fill="#1D5FA6" transform="translate(400.1875,429.625)"/>
<path d="M0 0 C6.64216408 4.47959903 6.84381301 7.51590853 8.6875 15.8125 C-1.8725 15.8125 -12.4325 15.8125 -23.3125 15.8125 C-22.18303246 6.77675966 -22.18303246 6.77675966 -19.5 3.9375 C-18.99855469 3.38320313 -18.49710938 2.82890625 -17.98046875 2.2578125 C-12.66066452 -2.35185393 -6.41073048 -2.2981864 0 0 Z " fill="#F1F4F7" transform="translate(1179.3125,485.1875)"/>
<path d="M0 0 C3.85693429 2.2251544 5.29316287 3.88606277 7.25 7.875 C7.58 10.515 7.91 13.155 8.25 15.875 C-2.31 15.875 -12.87 15.875 -23.75 15.875 C-21.48889876 6.83059503 -21.48889876 6.83059503 -18.875 4 C-18.38257813 3.44570313 -17.89015625 2.89140625 -17.3828125 2.3203125 C-12.1460619 -2.31508875 -6.35325779 -1.90597734 0 0 Z " fill="#F1F4F6" transform="translate(977.75,485.125)"/>
<path d="M0 0 C1.18916016 0.01353516 1.18916016 0.01353516 2.40234375 0.02734375 C4.35169281 0.05082988 6.30088575 0.08669863 8.25 0.125 C8.37869329 6.11638744 8.15776344 11.04245297 3.8203125 15.640625 C-0.93130675 19.75396704 -4.55671281 20.55212325 -10.75 20.125 C-14.2886994 18.47360695 -15.56070153 17.40894771 -17.75 14.125 C-18.1875 10.75 -18.1875 10.75 -17.75 7.125 C-12.44695791 0.49619739 -8.00491779 -0.172577 0 0 Z " fill="#F9FAFB" transform="translate(976.75,380.875)"/>
<path d="M0 0 C0.57142857 9.71428571 0.57142857 9.71428571 -3 14 C-6.86339195 17.71561193 -9.89846621 19.84433083 -15.375 20.25 C-19.2487362 19.98284578 -20.96025572 19.34494559 -24 17 C-26.50031654 13.24952518 -26.53603554 11.44143734 -26 7 C-23.3674015 3.41009296 -20.6932959 1.31583741 -16.3125 0.26953125 C-10.90472265 -0.36076712 -5.43318298 -0.13564118 0 0 Z " fill="#F9FBFB" transform="translate(1052,510)"/>
<path d="M0 0 C5.6559083 4.97034366 6.04900084 6.70450675 7.0625 14.8125 C-3.4975 14.8125 -14.0575 14.8125 -24.9375 14.8125 C-22.08861111 3.41694444 -22.08861111 3.41694444 -16.11328125 -0.33203125 C-11.08420781 -2.30935097 -4.95003775 -2.00107909 0 0 Z " fill="#F7F9FA" transform="translate(1002.9375,614.1875)"/>
<path d="M0 0 C1.010625 -0.00773438 2.02125 -0.01546875 3.0625 -0.0234375 C6.44963435 0.43598764 8.28431717 1.31837273 11 3.375 C12.36328125 5.2421875 12.36328125 5.2421875 13.3125 7.25 C13.80169922 8.23613281 13.80169922 8.23613281 14.30078125 9.2421875 C15 11.375 15 11.375 15 16.375 C4.77 16.375 -5.46 16.375 -16 16.375 C-14.80769231 8.02884615 -14.80769231 8.02884615 -11 3.375 C-7.25591666 0.6508566 -4.60761727 -0.03526238 0 0 Z " fill="#F8FAFB" transform="translate(878,612.625)"/>
<path d="M0 0 C2.74483673 1.24765306 4.47294058 2.35315435 6.375 4.6875 C7.34322844 8.26994521 6.99323813 11.4433311 6 15 C3.79611308 18.30583039 2.41015164 18.88814046 -1.4375 19.9375 C-5.48221121 20.00845985 -6.92080053 19.56599956 -10 17 C-12.51464223 13.98242933 -12.99187106 12.45522051 -13.0625 8.5 C-11.11244782 2.07629869 -6.69206849 -1.13907549 0 0 Z " fill="#0E3E73" transform="translate(861,444)"/>
<path d="M0 0 C3.28079607 0.84836747 4.90003114 2.9118294 6.93359375 5.5 C8.38507278 8.40295805 8.305984 10.27261779 7.93359375 13.5 C5.47726813 17.77876075 5.47726813 17.77876075 2.93359375 19.5 C-0.24119697 20.30948552 -2.88347906 20.2482469 -6.06640625 19.5 C-9.12890625 17.5625 -9.12890625 17.5625 -11.06640625 14.5 C-11.75784894 11.33993549 -11.76342149 8.65942156 -11.06640625 5.5 C-8.08805159 0.93939442 -5.2653578 -0.31850936 0 0 Z " fill="#0B3C72" transform="translate(1159.06640625,572.5)"/>
<path d="M0 0 C2.75329021 1.79562405 4.52627461 3.05254922 6 6 C6.0407792 10.22472472 5.64803461 13.89294087 3.5 17.5625 C-0.30895515 19.75264921 -3.72261342 19.85243291 -8 19 C-11.20879247 16.96994762 -12.62927537 15.57700553 -13.5078125 11.83984375 C-13.85679663 7.29546348 -13.43155073 5.51575575 -10.4375 1.9375 C-6.45664064 -0.30625709 -4.49411434 -0.73540053 0 0 Z " fill="#0B3C71" transform="translate(1305,315)"/>
<path d="M0 0 C13.2 0 26.4 0 40 0 C40 0.33 40 0.66 40 1 C27.46 1 14.92 1 2 1 C2 30.37 2 59.74 2 90 C15.2 90 28.4 90 42 90 C29.46383011 96.26808495 14.01586403 92 0 92 C0 61.64 0 31.28 0 0 Z " fill="#052E69" transform="translate(758,449)"/>
<path d="M0 0 C5.28 0 10.56 0 16 0 C16 22.44 16 44.88 16 68 C10.72 68 5.44 68 0 68 C0 45.56 0 23.12 0 0 Z M2 1 C2 22.45 2 43.9 2 66 C6.29 66 10.58 66 15 66 C15 44.55 15 23.1 15 1 C10.71 1 6.42 1 2 1 Z " fill="#022461" transform="translate(850,473)"/>
<path d="M0 0 C5.28 0 10.56 0 16 0 C16 22.11 16 44.22 16 67 C10.72 67 5.44 67 0 67 C0 44.89 0 22.78 0 0 Z M2 1 C2 22.12 2 43.24 2 65 C6.29 65 10.58 65 15 65 C15 43.88 15 22.76 15 1 C10.71 1 6.42 1 2 1 Z " fill="#002360" transform="translate(1149,602)"/>
<path d="M0 0 C4.95 0 9.9 0 15 0 C15 2.64 15 5.28 15 8 C14.67 8 14.34 8 14 8 C14 5.69 14 3.38 14 1 C10.04 1 6.08 1 2 1 C2 22.12 2 43.24 2 65 C6.29 65 10.58 65 15 65 C14.98428955 63.75911621 14.9685791 62.51823242 14.95239258 61.23974609 C14.89795912 56.62164845 14.86360108 52.003579 14.83520508 47.38525391 C14.82014902 45.38911159 14.79969973 43.39300219 14.77368164 41.39697266 C14.73715839 38.52237815 14.72024163 35.64822228 14.70703125 32.7734375 C14.69154739 31.88570648 14.67606354 30.99797546 14.66011047 30.08334351 C14.65872339 24.93873749 15.20951022 21.49954407 18 17 C18.33 17.66 18.66 18.32 19 19 C18.69916504 19.66217529 18.39833008 20.32435059 18.08837891 21.0065918 C16.53094483 25.29005954 16.64308989 29.36850509 16.5859375 33.89453125 C16.56657135 34.84188644 16.5472052 35.78924164 16.5272522 36.76530457 C16.46763629 39.78094577 16.42114295 42.79662552 16.375 45.8125 C16.33680367 47.86134446 16.29775098 49.91017314 16.2578125 51.95898438 C16.16194947 56.97252762 16.07785193 61.98614603 16 67 C10.72 67 5.44 67 0 67 C0 44.89 0 22.78 0 0 Z " fill="#052560" transform="translate(1255,602)"/>
<path d="M0 0 C2.4375 1.625 2.4375 1.625 4 4 C4.55921637 7.91451456 4.63274809 10.0382229 2.4375 13.375 C-0.82839428 15.55226285 -3.07983866 16 -7 16 C-9.9375 14.625 -9.9375 14.625 -12 12 C-12.7091166 8.85221411 -12.7091166 6.14778589 -12 3 C-8.42324245 -1.55223688 -5.38017918 -1.56514303 0 0 Z " fill="#1D5DA4" transform="translate(450,512)"/>
<path d="M0 0 C2 2 2 2 2.24050903 4.02481079 C2.2338472 5.27057388 2.2338472 5.27057388 2.22705078 6.54150391 C2.22689972 7.48232819 2.22674866 8.42315247 2.22659302 9.39248657 C2.21627045 10.41023163 2.20594788 11.42797668 2.1953125 12.4765625 C2.1924826 13.51694672 2.18965271 14.55733093 2.18673706 15.62924194 C2.17551704 18.96127694 2.15040915 22.29304586 2.125 25.625 C2.11497256 27.88020446 2.1058463 30.13541312 2.09765625 32.390625 C2.07557174 37.92718629 2.04102946 43.46354799 2 49 C-3.61 49 -9.22 49 -15 49 C-15 33.16 -15 17.32 -15 1 C-12.92461376 4.11307936 -12.75227849 4.76348195 -12.77294922 8.2878418 C-12.77310028 9.14850754 -12.77325134 10.00917328 -12.77340698 10.8959198 C-12.78372955 11.82100845 -12.79405212 12.74609711 -12.8046875 13.69921875 C-12.8075174 14.64940384 -12.81034729 15.59958893 -12.81326294 16.5785675 C-12.82446285 19.61500615 -12.84956712 22.65115042 -12.875 25.6875 C-12.88503004 27.74543845 -12.89415585 29.80338152 -12.90234375 31.86132812 C-12.92440158 36.9076656 -12.95893018 41.95378288 -13 47 C-8.71 47 -4.42 47 0 47 C0 31.49 0 15.98 0 0 Z " fill="#2E4B7C" transform="translate(930,363)"/>
<path d="M0 0 C2 2 2 2 2.24050903 4.10073853 C2.2338472 5.3997963 2.2338472 5.3997963 2.22705078 6.72509766 C2.22689972 7.70596344 2.22674866 8.68682922 2.22659302 9.69741821 C2.21627045 10.75891083 2.20594788 11.82040344 2.1953125 12.9140625 C2.1924826 13.99883881 2.18965271 15.08361511 2.18673706 16.20126343 C2.17551578 19.67595313 2.15040762 23.15038782 2.125 26.625 C2.11497272 28.97655879 2.10584643 31.3281216 2.09765625 33.6796875 C2.07557007 39.4532237 2.0410269 45.22656857 2 51 C-3.28 51 -8.56 51 -14 51 C-14.33 35.49 -14.66 19.98 -15 4 C-13 6 -13 6 -12.75949097 7.87295532 C-12.76393219 8.63240448 -12.76837341 9.39185364 -12.77294922 10.17431641 C-12.77310028 11.03505768 -12.77325134 11.89579895 -12.77340698 12.78262329 C-12.78372955 13.71287323 -12.79405212 14.64312317 -12.8046875 15.6015625 C-12.8075174 16.55316254 -12.81034729 17.50476257 -12.81326294 18.48519897 C-12.82448011 21.53192592 -12.84958737 24.57836154 -12.875 27.625 C-12.88502782 29.68749576 -12.89415401 31.74999612 -12.90234375 33.8125 C-12.92442446 38.87511267 -12.9589647 43.9375069 -13 49 C-8.71 49 -4.42 49 0 49 C0 32.83 0 16.66 0 0 Z " fill="#032461" transform="translate(1313,618)"/>
<path d="M0 0 C2.375 1.625 2.375 1.625 4 4 C4.60605429 7.63632575 4.47161336 9.28314769 2.4375 12.375 C-0.92058549 14.61372366 -3.04745604 14.57491549 -7 14 C-9.62541413 11.79803976 -9.9445448 10.38026421 -10.4375 7 C-10 4 -10 4 -8.375 1.625 C-5.28813568 -0.48706506 -3.6717087 -0.61195145 0 0 Z " fill="#1A5AA3" transform="translate(374,484)"/>
<path d="M0 0 C0.33 0 0.66 0 1 0 C1 24.75 1 49.5 1 75 C3.97 74.01 3.97 74.01 7 73 C4.63290296 75.74084921 2.35594194 76.7367158 -1 78 C-1.02313799 68.12537698 -1.04092255 58.25076037 -1.05181217 48.3761158 C-1.0570378 43.79126149 -1.06412967 39.20642569 -1.07543945 34.62158203 C-1.08627967 30.19958183 -1.09227925 25.77759946 -1.09487724 21.35558701 C-1.09672944 19.66583856 -1.10034614 17.97609113 -1.10573006 16.28635025 C-1.11295551 13.92541622 -1.1139903 11.56455653 -1.11352539 9.20361328 C-1.11712067 8.50014771 -1.12071594 7.79668213 -1.12442017 7.07189941 C-1.11405216 2.22810432 -1.11405216 2.22810432 0 0 Z " fill="#0B509E" transform="translate(316,267)"/>
<path d="M0 0 C0.33 0 0.66 0 1 0 C1 29.04 1 58.08 1 88 C8.92 88 16.84 88 25 88 C27.64 88.33 30.28 88.66 33 89 C33 89.33 33 89.66 33 90 C21.78 90 10.56 90 -1 90 C-0.67 60.3 -0.34 30.6 0 0 Z " fill="#002967" transform="translate(759,579)"/>
<path d="M0 0 C0.66 0.33 1.32 0.66 2 1 C2 17.5 2 34 2 51 C-2.95 51 -7.9 51 -13 51 C-13 48.03 -13 45.06 -13 42 C-12.67 42 -12.34 42 -12 42 C-12 44.31 -12 46.62 -12 49 C-8.04 49 -4.08 49 0 49 C0 32.83 0 16.66 0 0 Z " fill="#1D4076" transform="translate(999,361)"/>
<path d="M0 0 C0.33 0 0.66 0 1 0 C1 21.12 1 42.24 1 64 C5.29 64 9.58 64 14 64 C14 64.66 14 65.32 14 66 C9.05 66 4.1 66 -1 66 C-1.16164085 43.98092376 -0.66367426 22.00715611 0 0 Z " fill="#08326B" transform="translate(1294,346)"/>
<path d="M0 0 C2.27413905 2.11730187 2.91522114 3.50343812 3.4375 6.5625 C3 9 3 9 1.375 10.875 C-1.83982625 12.39781243 -3.63817316 12.02316469 -7 11 C-9 8 -9 8 -8.8125 4.9375 C-7.49293093 0.16675028 -4.59490875 -0.68923631 0 0 Z " fill="#1A5AA3" transform="translate(427,426)"/>
<path d="M0 0 C2.97 0 5.94 0 9 0 C7 1 5 2 3 3 C2.34 2.67 1.68 2.34 1 2 C1.01160156 3.14339844 1.02320313 4.28679688 1.03515625 5.46484375 C1.04453288 6.95572754 1.05363321 8.44661309 1.0625 9.9375 C1.07087891 10.69224609 1.07925781 11.44699219 1.08789062 12.22460938 C1.09652441 14.14994313 1.05224333 16.07535581 1 18 C0 19 0 19 -2.28515625 19.09765625 C-4.85677083 19.06510417 -7.42838542 19.03255208 -10 19 C-10 22.3 -10 25.6 -10 29 C-7.03 29 -4.06 29 -1 29 C-1 29.33 -1 29.66 -1 30 C-4.3 30 -7.6 30 -11 30 C-11 26.04 -11 22.08 -11 18 C-7.7 18 -4.4 18 -1 18 C-1.020625 16.700625 -1.04125 15.40125 -1.0625 14.0625 C-1.07004972 9.30617675 -0.59887117 4.71611047 0 0 Z " fill="#08215C" transform="translate(1106,584)"/>
<path d="M0 0 C2.5 0.25 2.5 0.25 4.5 2.25 C4.125 5.375 4.125 5.375 3.5 8.25 C0.625 8.875 0.625 8.875 -2.5 9.25 C-4.5 7.25 -4.5 7.25 -4.75 4.75 C-4.40058445 1.25584452 -3.49415548 0.34941555 0 0 Z " fill="#15549F" transform="translate(392.5,514.75)"/>
<path d="M0 0 C0.33 0 0.66 0 1 0 C1.33 7.92 1.66 15.84 2 24 C-3.28 24 -8.56 24 -14 24 C-13.67 23.34 -13.34 22.68 -13 22 C-8.71 22 -4.42 22 0 22 C0 14.74 0 7.48 0 0 Z " fill="#0E326C" transform="translate(1236,388)"/>
<path d="M0 0 C0.33 0 0.66 0 1 0 C1 7.26 1 14.52 1 22 C5.29 22 9.58 22 14 22 C14 22.66 14 23.32 14 24 C9.05 24 4.1 24 -1 24 C-0.67 16.08 -0.34 8.16 0 0 Z " fill="#032F6A" transform="translate(1256,645)"/>
<path d="M0 0 C2.87139937 2.31564465 3.92044217 3.69881677 4.875 7.3125 C5.01590223 11.46911579 4.6584441 14.17836794 3 18 C-0.125 20.4375 -0.125 20.4375 -3 22 C-3.66 21.67 -4.32 21.34 -5 21 C-4.21625 20.4225 -3.4325 19.845 -2.625 19.25 C0.48361126 16.60537692 0.48361126 16.60537692 2 13 C2.31552523 8.03047769 2.2647694 4.52953881 0 0 Z " fill="#0E4C9B" transform="translate(560,490)"/>
<path d="M0 0 C0 0.66 0 1.32 0 2 C-5.94 2 -11.88 2 -18 2 C-18 1.34 -18 0.68 -18 0 C-15.3753399 -0.19430855 -12.75053235 -0.38073238 -10.125 -0.5625 C-9.00544922 -0.64661133 -9.00544922 -0.64661133 -7.86328125 -0.73242188 C-2.2265625 -1.11328125 -2.2265625 -1.11328125 0 0 Z " fill="#163B71" transform="translate(1282,410)"/>
<path d="M0 0 C0.33 0.66 0.66 1.32 1 2 C-0.72275923 3.81343076 -2.47443589 5.37711571 -4.4375 6.9375 C-6.79544607 8.83535903 -8.90120417 10.82347099 -11 13 C-9.56179563 7.72658399 -5.9961885 4.50608991 -2 1 C-1.34 0.67 -0.68 0.34 0 0 Z " fill="#0C4A9A" transform="translate(330,248)"/>
<path d="M0 0 C0.66 0.33 1.32 0.66 2 1 C1.8125 2.875 1.8125 2.875 1 5 C-1.4375 6.125 -1.4375 6.125 -4 7 C-4.66 7.66 -5.32 8.32 -6 9 C-5.52797514 4.75177626 -3.03344482 2.80010291 0 0 Z " fill="#0E346B" transform="translate(951,376)"/>
<path d="M0 0 C0.33 0 0.66 0 1 0 C1 2.97 1 5.94 1 9 C0.01 9 -0.98 9 -2 9 C-2.6875 6.75 -2.6875 6.75 -3 4 C-1.625 1.6875 -1.625 1.6875 0 0 Z " fill="#154C9A" transform="translate(320,628)"/>
<path d="M0 0 C0 4.38968456 -2.12805101 5.76905739 -5 9 C-5.99 8.67 -6.98 8.34 -8 8 C-5.33333333 5.33333333 -2.66666667 2.66666667 0 0 Z " fill="#124E9C" transform="translate(542,541)"/>
<path d="M0 0 C0.66 0.99 1.32 1.98 2 3 C1.67 3.99 1.34 4.98 1 6 C0.67 5.34 0.34 4.68 0 4 C-4.95 4 -9.9 4 -15 4 C-15 3.67 -15 3.34 -15 3 C-10.05 3 -5.1 3 0 3 C0 2.01 0 1.02 0 0 Z " fill="#456E95" transform="translate(1052,496)"/>
<path d="M0 0 C0.66 0.33 1.32 0.66 2 1 C1.43628586 4.26954202 0.50037734 5.82575883 -2 8 C-2.66 7.67 -3.32 7.34 -4 7 C-2.68 4.69 -1.36 2.38 0 0 Z " fill="#0E336B" transform="translate(818,635)"/>
</svg>
